<?xml version="1.0" encoding="UTF-8" standalone="no"?>
<svg width="20px" height="13px" viewBox="0 0 20 13" version="1.1" xmlns="http://www.w3.org/2000/svg" xmlns:xlink="http://www.w3.org/1999/xlink">
    <!-- Generator: Sketch 46.2 (44496) - http://www.bohemiancoding.com/sketch -->
    <title>mail_head</title>
    <desc>Created with Sketch.</desc>
    <defs></defs>
    <g id="Page-1" stroke="none" stroke-width="1" fill="none" fill-rule="evenodd">
        <g id="Plans-&amp;-Pricing" transform="translate(-746.000000, -10.000000)" fill="#6E6E6E">
            <g id="Overheader">
                <g id="mail" transform="translate(746.000000, 7.000000)">
                    <path d="M19.7058881,3 L0.294120252,3 C0.176160709,3 0.0694313566,3.06002197 0.0232344349,3.15251366 C0.00736753633,3.18426023 -0.000289412028,3.21828473 8.35818624e-06,3.25176687 L8.35818624e-06,15.7500049 L8.35818624e-06,15.7507642 C8.35818624e-06,15.7842463 0.00796307676,15.816246 0.022043354,15.8452446 C0.0364639401,15.8750024 0.0576056253,15.9024824 0.0861490272,15.9267443 C0.114692429,15.95097 0.147021767,15.9689766 0.182031036,15.9812341 C0.216146995,15.9932385 0.253836196,16 0.293226942,16 L0.294120252,16 L19.7058881,16 C19.7470655,16 19.7859032,15.9930215 19.8210826,15.9800409 C19.8537523,15.9683258 19.8843375,15.9512954 19.9110943,15.9290584 C19.9119876,15.9282991 19.9116899,15.9285522 19.9116899,15.9285522 C19.9119876,15.9282991 19.9122854,15.9282991 19.9122854,15.9280459 L19.9125832,15.9280459 C19.9125832,15.9270335 19.9128809,15.9272866 19.9131787,15.9272866 C19.9134765,15.9272866 19.9134765,15.9270335 19.9137743,15.9267804 C19.914072,15.9265273 19.9143698,15.9265273 19.9143698,15.9262742 C19.9143698,15.9262742 19.9146676,15.9262742 19.9146676,15.9260211 L19.9152631,15.9255149 C19.9155609,15.9252618 19.9155609,15.9252618 19.9158586,15.9250087 C19.9158586,15.9250087 19.9158586,15.9250087 19.9161564,15.9247556 C19.9435087,15.901253 19.9637996,15.8742431 19.9779225,15.8454977 C19.9923431,15.8159929 20,15.7837401 20,15.7500049 L20,3.24999513 C20,3.11176381 19.8685557,3 19.7058881,3 Z M19.0105947,3.49999027 L12.2506153,9.41898842 L12.2503175,9.41924152 L9.99883437,11.3922289 L7.72999549,9.4337408 L0.987074078,3.49999027 L19.0105947,3.49999027 Z M0.588232146,3.86876382 L7.10706021,9.60552658 L0.588232146,15.1465309 L0.588232146,3.86876382 Z M1.00413206,15.5000097 L7.51764279,9.963272 L9.79056537,11.9252674 C9.84616333,11.9732488 9.92145665,12.0000056 10.0002807,12.0000056 L10.0014718,12.0000056 C10.0805936,11.9997525 10.1561847,11.9722364 10.2114848,11.9240018 L12.4650098,9.94949588 L18.9958763,15.5000097 L1.00413206,15.5000097 Z M19.4117762,15.1465309 L12.8746991,9.59052109 L19.4117762,3.86652204 L19.4117762,15.1465309 Z" id="mail_head"></path>
                </g>
            </g>
        </g>
    </g>
</svg>