<?xml version="1.0" encoding="UTF-8" standalone="no"?>
<svg width="20px" height="20px" viewBox="0 0 20 20" version="1.1" xmlns="http://www.w3.org/2000/svg" xmlns:xlink="http://www.w3.org/1999/xlink">
    <!-- Generator: Sketch 46.2 (44496) - http://www.bohemiancoding.com/sketch -->
    <title>phone_head</title>
    <desc>Created with Sketch.</desc>
    <defs></defs>
    <g id="Page-1" stroke="none" stroke-width="1" fill="none" fill-rule="evenodd">
        <g id="Plans-&amp;-Pricing" transform="translate(-865.000000, -5.000000)" stroke="#6E6E6E">
            <g id="Overheader">
                <g id="phone" transform="translate(865.000000, 5.000000)">
                    <g id="icon_ios_phone">
                        <path d="M0.591872608,3.67987049 C0.591872608,6.58428076 2.79634016,10.446237 6.85925215,14.0893911 C11.1433469,17.9308765 14.0900145,19.3250479 16.449647,18.7674205 C16.9567085,18.647592 17.9131596,17.9945777 18.4654608,17.305138 C19.1211076,16.4866917 19.1715954,15.7905768 18.5010502,15.1797784 C18.4061263,15.09287 18.3365338,15.0293293 18.258674,14.9591746 C18.1320473,14.8450789 18.0039765,14.7320133 17.8680556,14.6150481 C17.5046038,14.302284 17.1311939,14.0014222 16.7490421,13.7198734 C16.1673113,13.2912856 15.6071672,12.9387974 15.0865516,12.686581 C14.7007511,12.4996769 14.3458091,12.372645 14.0298443,12.3110686 C13.7918352,12.2646845 13.5867774,12.3653748 13.1244106,12.7392121 C13.0232268,12.8212336 12.9725799,12.8620015 12.9163941,12.9059531 C12.2386729,13.4361034 11.6853243,13.5875548 11.0174005,13.1729301 C9.17723967,12.03062 7.05407369,9.90818909 6.27524879,8.2027304 C6.01448187,7.63170704 6.22186305,7.16110602 6.83649607,6.30013521 C6.87530529,6.2458874 6.87530529,6.2458874 6.91379585,6.1923534 C7.36736704,5.56174611 7.49140373,5.30292695 7.46371944,5.25668584 C5.4044828,1.81714001 4.51996149,0.686346637 3.83570859,0.686346637 C3.40519799,0.686346637 2.58862276,0.913605763 1.95905578,1.30040966 C1.0884628,1.83529913 0.591872608,2.60817602 0.591872608,3.67987049 Z" id="phone_head"></path>
                    </g>
                </g>
            </g>
        </g>
    </g>
</svg>