<?xml version="1.0" encoding="UTF-8" standalone="no"?>
<svg width="20px" height="20px" viewBox="0 0 20 20" version="1.1" xmlns="http://www.w3.org/2000/svg" xmlns:xlink="http://www.w3.org/1999/xlink">
    <!-- Generator: Sketch 46.2 (44496) - http://www.bohemiancoding.com/sketch -->
    <title>icon_user</title>
    <desc>Created with Sketch.</desc>
    <defs></defs>
    <g id="Page-1" stroke="none" stroke-width="1" fill="none" fill-rule="evenodd">
        <g id="Plans-&amp;-Pricing" transform="translate(-1014.000000, -5.000000)" fill-rule="nonzero" fill="#6E6E6E">
            <g id="Overheader">
                <g id="Account" transform="translate(1014.000000, 5.000000)">
                    <g id="icon_user">
                        <path d="M20,10 C20,15.5228475 15.5228475,20 10,20 C4.4771525,20 0,15.5228475 0,10 C0,4.4771525 4.4771525,0 10,0 C15.5228475,0 20,4.4771525 20,10 Z M15.9733508,16.9973059 L15.9733508,16.9973059 C15.9693103,16.995623 15.9652545,16.9939466 15.9611833,16.9922766 C14.8150715,16.5221511 13.6118401,16.5341083 12.4305281,15.9967587 C12.3307948,15.1934812 12.2698741,14.2277144 12.3092967,13.3325541 C12.478253,13.0965959 12.6220639,12.8674568 12.737754,12.6831104 C13.2209264,11.9131989 13.3392174,11.1295568 13.3479656,10.5917218 C13.492982,10.4881909 13.6295607,10.3783388 13.7314321,10.2717506 C14.1076,9.87816561 14.0204336,8.82464833 13.9132995,8.54167718 C13.8729086,8.43499375 13.7806743,8.35276991 13.6653911,8.31283227 C13.7600179,7.97604463 13.8390588,7.56576522 13.8390588,7.13487581 C13.8390588,6.06142457 13.8908746,5.44417222 13.5989241,4.83951448 C12.990063,3.57850433 11.4089033,2.83004335 10.2089033,2.83004335 C10.2081736,2.89180634 10.2058322,2.96016752 10.2019975,3.03467574 L10.2019975,3.03467574 C10.201381,2.95903835 10.2007161,2.89065149 10.2,2.83004335 C8.6,2.83004335 7.01884035,3.57850433 6.40997926,4.83951448 C6.11802874,5.44417222 6.16984448,6.06142457 6.16984448,7.13487581 C6.16984448,7.56576522 6.24888537,7.97604463 6.34351223,8.31283227 L6.34351223,8.31283227 C6.22822904,8.35276991 6.13599468,8.43499375 6.09560386,8.54167718 C5.98846972,8.82464833 5.90130327,9.87816561 6.27747125,10.2717506 C6.37934265,10.3783388 6.51592136,10.4881909 6.66093771,10.5917218 C6.66968593,11.1295568 6.78797697,11.9131989 7.27114937,12.6831104 C7.38683941,12.8674568 7.53065029,13.0965959 7.69960662,13.3325541 C7.73902917,14.2277144 7.67810854,15.1934812 7.57837525,15.9967587 L7.57837525,15.9967587 C6.39706321,16.5341083 5.19383186,16.5221511 4.04772001,16.9922766 C4.04163737,16.9947717 4.03558912,16.9972812 4.02957507,16.9998049 C5.63647223,18.3717083 7.72150717,19.2 10,19.2 C12.279876,19.2 14.3660591,18.3707024 15.9733508,16.9973059 Z" id="user_ic"></path>
                    </g>
                </g>
            </g>
        </g>
    </g>
</svg>