<svg xmlns="http://www.w3.org/2000/svg" width="92" height="92.031" viewBox="0 0 92 92.031">
  <metadata><?xpacket begin="﻿" id="W5M0MpCehiHzreSzNTczkc9d"?>
<x:xmpmeta xmlns:x="adobe:ns:meta/" x:xmptk="Adobe XMP Core 5.6-c138 79.159824, 2016/09/14-01:09:01        ">
   <rdf:RDF xmlns:rdf="http://www.w3.org/1999/02/22-rdf-syntax-ns#">
      <rdf:Description rdf:about=""/>
   </rdf:RDF>
</x:xmpmeta>
                                                                                                    
                                                                                                    
                                                                                                    
                                                                                                    
                                                                                                    
                                                                                                    
                                                                                                    
                                                                                                    
                                                                                                    
                                                                                                    
                                                                                                    
                                                                                                    
                                                                                                    
                                                                                                    
                                                                                                    
                                                                                                    
                                                                                                    
                                                                                                    
                                                                                                    
                                                                                                    
                           
<?xpacket end="w"?></metadata>
<defs>
    <style>
      .cls-1 {
        fill: #969696;
        fill-rule: evenodd;
        mix-blend-mode: darken;
      }
    </style>
  </defs>
  <path id="hotdog" class="cls-1" d="M764.564,722.215l-3.531-4.633c0-.008.008-0.016,0.013-0.023,0.149-.247.287-0.5,0.416-0.753,0.025-.05.049-0.1,0.074-0.151,0.117-.241.227-0.485,0.326-0.732,0.026-.064.049-0.129,0.073-0.194q0.111-.291.205-0.587c0.031-.1.061-0.191,0.089-0.287,0.058-.2.109-0.4,0.156-0.606,0.026-.112.051-0.224,0.074-0.336q0.062-.314.107-0.628c0.018-.122.031-0.244,0.044-0.366,0.016-.148.029-0.295,0.039-0.443,0.012-.172.02-0.345,0.024-0.517,0-.15,0-0.3,0-0.449,0-.117,0-0.235-0.009-0.352-0.01-.217-0.027-0.433-0.049-0.649-0.011-.107-0.024-0.214-0.038-0.321-0.03-.228-0.064-0.455-0.108-0.681-0.015-.077-0.034-0.154-0.05-0.231-0.044-.2-0.092-0.4-0.147-0.6-0.018-.067-0.034-0.135-0.054-0.2-0.072-.244-0.154-0.487-0.242-0.727-0.024-.064-0.047-0.129-0.072-0.192-0.1-.247-0.2-0.491-0.312-0.731-0.021-.044-0.043-0.086-0.064-0.129-0.117-.241-0.242-0.479-0.378-0.713l-0.03-.055c-0.143-.244-0.3-0.482-0.462-0.717-0.029-.043-0.059-0.086-0.089-0.128q-0.243-.342-0.515-0.668c-0.032-.039-0.065-0.076-0.1-0.115-0.191-.224-0.39-0.444-0.6-0.656s-0.433-.411-0.657-0.6l-0.114-.1q-0.327-.272-0.668-0.515l-0.128-.089c-0.235-.163-0.473-0.319-0.717-0.462l-0.055-.03c-0.234-.136-0.472-0.261-0.713-0.378l-0.128-.064c-0.241-.113-0.484-0.216-0.731-0.312l-0.192-.073c-0.241-.088-0.483-0.17-0.727-0.241-0.067-.02-0.135-0.036-0.2-0.055-0.2-.054-0.4-0.1-0.6-0.146-0.077-.017-0.153-0.035-0.231-0.051-0.225-.043-0.453-0.077-0.68-0.107-0.107-.014-0.214-0.028-0.321-0.039-0.216-.022-0.433-0.039-0.649-0.049-0.118,0-.235-0.006-0.352-0.008-0.15,0-.3,0-0.449,0-0.172,0-.344.012-0.517,0.024-0.148.01-.295,0.023-0.442,0.038-0.123.014-.244,0.027-0.366,0.044-0.21.03-.42,0.066-0.628,0.108-0.113.022-.225,0.047-0.336,0.073-0.2.047-.406,0.1-0.606,0.156-0.1.028-.192,0.059-0.287,0.089-0.2.063-.393,0.132-0.587,0.205l-0.194.073c-0.247.1-.49,0.21-0.731,0.327l-0.151.074c-0.255.129-.507,0.267-0.753,0.416-0.008,0-.016.008-0.023,0.013l-4.632-3.532a12.007,12.007,0,0,0-15.719,1.056l-46.579,46.593a12.017,12.017,0,0,0-1.055,15.724l3.53,4.633c0,0.008-.008.017-0.013,0.025-0.149.245-.286,0.495-0.414,0.749-0.026.052-.052,0.1-0.077,0.156-0.116.239-.226,0.481-0.324,0.727-0.027.066-.05,0.133-0.076,0.2q-0.108.286-.2,0.579c-0.033.1-.064,0.2-0.093,0.3-0.057.2-.107,0.394-0.153,0.593-0.027.113-.052,0.227-0.075,0.341q-0.061.31-.107,0.624c-0.017.124-.03,0.247-0.044,0.371-0.016.145-.028,0.29-0.038,0.435-0.012.175-.021,0.35-0.025,0.525,0,0.148,0,.3,0,0.443,0,0.119,0,.237.008,0.356,0.01,0.216.027,0.432,0.049,0.647,0.011,0.108.025,0.215,0.039,0.323,0.03,0.227.064,0.454,0.107,0.679,0.015,0.078.034,0.155,0.051,0.232,0.043,0.2.092,0.4,0.146,0.6,0.018,0.068.035,0.135,0.054,0.2,0.072,0.245.154,0.487,0.242,0.727,0.024,0.065.048,0.129,0.073,0.194,0.1,0.246.2,0.49,0.312,0.73,0.02,0.043.042,0.085,0.063,0.128,0.118,0.241.243,0.48,0.378,0.714,0.011,0.018.02,0.036,0.031,0.055,0.143,0.244.3,0.482,0.461,0.717l0.089,0.128c0.163,0.227.334,0.45,0.515,0.668l0.1,0.114c0.192,0.224.391,0.445,0.6,0.657s0.432,0.411.656,0.6l0.114,0.1c0.218,0.181.441,0.352,0.669,0.515l0.127,0.089c0.235,0.163.473,0.318,0.717,0.461l0.055,0.031q0.351,0.2.713,0.378l0.129,0.063c0.24,0.114.484,0.217,0.73,0.312,0.064,0.025.129,0.05,0.193,0.073,0.24,0.089.482,0.171,0.727,0.242,0.067,0.02.134,0.036,0.2,0.054,0.2,0.055.4,0.1,0.6,0.147,0.077,0.016.154,0.035,0.232,0.05,0.225,0.044.452,0.078,0.679,0.108,0.107,0.014.215,0.027,0.323,0.038,0.215,0.022.431,0.039,0.646,0.049,0.119,0.006.237,0.007,0.356,0.009,0.147,0,.3,0,0.443,0q0.263-.006.525-0.024c0.145-.011.29-0.023,0.435-0.039,0.124-.013.247-0.026,0.37-0.044q0.314-.045.625-0.107c0.114-.022.227-0.048,0.34-0.074q0.3-.069.594-0.153c0.1-.029.2-0.061,0.3-0.093,0.194-.062.387-0.13,0.578-0.2,0.067-.025.134-0.049,0.2-0.075,0.246-.1.488-0.209,0.727-0.325,0.052-.025.1-0.05,0.156-0.077,0.253-.128.5-0.265,0.749-0.414l0.024-.013,4.632,3.531a12.007,12.007,0,0,0,15.719-1.056l46.579-46.593A12.016,12.016,0,0,0,764.564,722.215Zm-68.907,56.3c-0.1.078-.2,0.146-0.3,0.219-0.123.09-.245,0.182-0.372,0.265s-0.236.141-.355,0.21c-0.1.055-.189,0.115-0.286,0.165a7.856,7.856,0,0,1-1.407.57l-0.014,0q-0.356.105-.718,0.175l-0.074.013c-0.22.04-.441,0.073-0.663,0.1l-0.123.009c-0.2.017-.41,0.028-0.615,0.029-0.056,0-.11,0-0.165,0-0.19,0-.379-0.011-0.568-0.027-0.068-.006-0.136-0.014-0.2-0.022-0.174-.019-0.348-0.044-0.521-0.075-0.078-.014-0.156-0.029-0.234-0.046-0.16-.033-0.319-0.073-0.478-0.116-0.086-.024-0.172-0.048-0.258-0.075-0.148-.046-0.294-0.1-0.439-0.153-0.091-.035-0.182-0.068-0.271-0.106-0.139-.058-0.275-0.124-0.41-0.19-0.091-.045-0.183-0.088-0.272-0.136-0.134-.072-0.264-0.152-0.394-0.232-0.086-.053-0.173-0.1-0.257-0.159-0.139-.093-0.273-0.2-0.407-0.3-0.069-.053-0.141-0.1-0.208-0.157-0.2-.164-0.393-0.337-0.578-0.523s-0.359-.379-0.523-0.578c-0.056-.068-0.1-0.14-0.157-0.209-0.1-.134-0.206-0.268-0.3-0.407-0.056-.084-0.106-0.171-0.159-0.256-0.08-.131-0.16-0.261-0.232-0.394-0.048-.09-0.091-0.182-0.136-0.272-0.066-.136-0.131-0.272-0.19-0.411-0.037-.089-0.071-0.18-0.105-0.271-0.055-.145-0.108-0.291-0.154-0.439-0.026-.086-0.051-0.172-0.075-0.259-0.043-.158-0.082-0.317-0.116-0.477-0.016-.078-0.032-0.156-0.046-0.234-0.031-.174-0.055-0.347-0.075-0.522-0.007-.068-0.015-0.135-0.021-0.2-0.016-.189-0.024-0.379-0.027-0.568,0-.056,0-0.11,0-0.165q0-.309.03-0.615c0-.042,0-0.083.008-0.124q0.034-.333.1-0.663c0-.025.007-0.05,0.012-0.075,0.047-.241.1-0.481,0.175-0.718l0-.013a7.94,7.94,0,0,1,.57-1.408c0.051-.1.111-0.19,0.166-0.286,0.068-.119.134-0.239,0.21-0.355s0.174-.249.264-0.372c0.073-.1.141-0.2,0.219-0.3l0.032-.04a7.568,7.568,0,0,1,.533-0.59l60.643-60.662c0.189-.189.386-0.366,0.589-0.532l0.042-.033c0.1-.077.2-0.144,0.293-0.216,0.124-.091.248-0.184,0.376-0.267,0.112-.073.229-0.137,0.345-0.2,0.1-.057.2-0.12,0.3-0.172a7.917,7.917,0,0,1,1.406-.569l0.021-.006q0.353-.1.71-0.173l0.08-.013c0.218-.04.437-0.072,0.658-0.094,0.042,0,.084-0.006.127-0.01q0.3-.026.611-0.029c0.056,0,.112,0,0.167,0,0.189,0,.378.011,0.566,0.027,0.069,0.006.137,0.014,0.2,0.021,0.174,0.02.347,0.045,0.52,0.075l0.235,0.046c0.16,0.034.319,0.073,0.476,0.117,0.087,0.023.174,0.048,0.26,0.075,0.147,0.046.293,0.1,0.438,0.153,0.091,0.034.182,0.068,0.272,0.106,0.138,0.058.274,0.123,0.409,0.19,0.092,0.044.183,0.087,0.273,0.135,0.134,0.072.264,0.153,0.394,0.233,0.085,0.053.172,0.1,0.256,0.159,0.139,0.093.273,0.195,0.407,0.3,0.069,0.053.141,0.1,0.209,0.158q0.3,0.244.578,0.522c0.186,0.186.359,0.38,0.522,0.579,0.056,0.067.105,0.139,0.158,0.208,0.1,0.134.205,0.269,0.3,0.407,0.057,0.084.106,0.171,0.159,0.257,0.08,0.13.16,0.26,0.232,0.394,0.049,0.09.092,0.181,0.136,0.272,0.067,0.136.132,0.272,0.19,0.41,0.038,0.09.072,0.181,0.106,0.272,0.055,0.145.107,0.291,0.153,0.438,0.027,0.086.051,0.173,0.075,0.26,0.043,0.158.083,0.316,0.116,0.476,0.017,0.078.032,0.157,0.046,0.236,0.031,0.172.056,0.346,0.075,0.52,0.008,0.068.016,0.136,0.022,0.2,0.016,0.189.024,0.378,0.026,0.567,0,0.055,0,.111,0,0.167,0,0.2-.012.408-0.029,0.612,0,0.042,0,.084-0.009.126-0.022.221-.055,0.44-0.1,0.658,0,0.027-.008.054-0.013,0.08q-0.069.359-.173,0.71c0,0.007,0,.015,0,0.022a7.917,7.917,0,0,1-.569,1.406c-0.053.1-.115,0.2-0.172,0.3-0.067.116-.131,0.233-0.2,0.345-0.083.128-.176,0.252-0.267,0.376-0.072.1-.139,0.2-0.215,0.293l-0.034.043q-0.249.3-.532,0.589l-60.644,60.661a7.741,7.741,0,0,1-.589.533Zm-14.74-30.008L727.5,701.916a8.566,8.566,0,0,1,11.214-.754l4,3.053-59.5,59.515-3.052-4A8.572,8.572,0,0,1,680.917,748.509Zm33.586,33.6a8.565,8.565,0,0,1-11.213.753l-4-3.052,59.5-59.516,3.052,4h0a8.571,8.571,0,0,1-.753,11.217Zm28.569-58.828a13.755,13.755,0,0,0,3.459-6.014,0.658,0.658,0,0,0-1.282-.3c-0.015.066-1.628,6.655-8.187,8.19-7.34,1.717-9.233,9-9.3,9.281-0.018.063-1.9,6.317-7.629,7.656-6.355,1.487-8.492,8.109-8.644,8.606-0.117.318-2.5,6.584-7.773,7.817-6.113,1.43-8.149,7.929-8.232,8.2a0.658,0.658,0,0,0,1.258.383c0.019-.06,1.909-6.051,7.273-7.305,6.093-1.426,8.614-8.377,8.728-8.7,0.02-.064,1.98-6.384,7.69-7.72,6.466-1.513,8.509-8.282,8.6-8.595,0.017-.068,1.766-6.806,8.334-8.343A11.715,11.715,0,0,0,743.072,723.277Z" transform="translate(-675 -696)"/>
</svg>
