<svg xmlns="http://www.w3.org/2000/svg" xmlns:xlink="http://www.w3.org/1999/xlink" width="19.81" height="20" viewBox="0 0 19.81 20">
  <metadata><?xpacket begin="﻿" id="W5M0MpCehiHzreSzNTczkc9d"?>
<x:xmpmeta xmlns:x="adobe:ns:meta/" x:xmptk="Adobe XMP Core 5.6-c138 79.159824, 2016/09/14-01:09:01        ">
   <rdf:RDF xmlns:rdf="http://www.w3.org/1999/02/22-rdf-syntax-ns#">
      <rdf:Description rdf:about=""/>
   </rdf:RDF>
</x:xmpmeta>
                                                                                                    
                                                                                                    
                                                                                                    
                                                                                                    
                                                                                                    
                                                                                                    
                                                                                                    
                                                                                                    
                                                                                                    
                                                                                                    
                                                                                                    
                                                                                                    
                                                                                                    
                                                                                                    
                                                                                                    
                                                                                                    
                                                                                                    
                                                                                                    
                                                                                                    
                                                                                                    
                           
<?xpacket end="w"?></metadata>
<defs>
    <style>
      .cls-1 {
        fill: #fff;
        fill-rule: evenodd;
        filter: url(#filter);
      }
    </style>
    <filter id="filter" x="1325" y="13" width="19.81" height="20" filterUnits="userSpaceOnUse">
      <feFlood result="flood" flood-color="#fff"/>
      <feComposite result="composite" operator="in" in2="SourceGraphic"/>
      <feBlend result="blend" in2="SourceGraphic"/>
    </filter>
  </defs>
  <path id="Instagram" class="cls-1" d="M1344.8,30.5v1.25a1.248,1.248,0,0,1-1.24,1.25h-17.32a1.242,1.242,0,0,1-1.24-1.25V28h0V19.25h0v-5a1.242,1.242,0,0,1,1.24-1.25h17.32a1.248,1.248,0,0,1,1.24,1.25V15.5h0v15h0Zm-9.9-10c-2.28,0-2.48,2.5-2.48,2.5a2.475,2.475,0,1,0,4.95,0S1337.18,20.5,1334.9,20.5Zm7.42-5h-3.71v3.751h3.71V15.5Zm0,7.5h0V21.75h-2.65a4.706,4.706,0,0,1,.18,1.25h0a4.95,4.95,0,1,1-9.9,0,5.149,5.149,0,0,1,.17-1.251h-2.65V30.5h14.85V26.751h0V23Z" transform="translate(-1325 -13)"/>
</svg>
